<?xml version="1.0" standalone="no"?>
<!DOCTYPE svg PUBLIC "-//W3C//DTD SVG 20010904//EN"
 "http://www.w3.org/TR/2001/REC-SVG-20010904/DTD/svg10.dtd">
<svg version="1.0" xmlns="http://www.w3.org/2000/svg"
 width="875.000000pt" height="620.000000pt" viewBox="0 0 875.000000 620.000000"
 preserveAspectRatio="xMidYMid meet">

<g transform="translate(0.000000,620.000000) scale(0.100000,-0.100000)"
fill="#000000" stroke="none">
<path d="M2280 6043 c-33 -7 -60 -32 -60 -56 0 -19 1 -19 20 -2 13 11 27 15
44 11 35 -9 42 -40 16 -81 l-21 -34 -37 37 c-45 45 -97 62 -183 62 -74 0 -72
0 -124 -63 -46 -58 -80 -77 -135 -77 -80 0 -30 -56 59 -67 39 -4 60 0 106 21
72 33 80 33 117 -4 27 -27 30 -36 25 -71 -7 -52 -60 -138 -102 -167 -18 -13
-74 -34 -125 -46 -99 -25 -118 -39 -170 -115 -48 -70 -108 -106 -225 -136
-118 -30 -224 -79 -281 -128 -52 -45 -61 -84 -34 -135 10 -20 24 -72 31 -115
10 -62 19 -87 45 -122 19 -24 42 -46 51 -49 10 -3 29 -22 42 -41 l24 -36 -20
-22 c-46 -50 -47 -144 -4 -246 17 -39 28 -78 25 -86 -16 -41 41 15 62 60 8 19
13 23 14 13 0 -24 13 -22 48 7 35 29 42 31 42 10 0 -18 -3 -18 62 -1 29 7 91
17 138 21 81 7 140 26 186 60 19 14 23 14 46 -4 13 -11 30 -38 38 -60 12 -37
11 -44 -14 -95 -18 -37 -46 -71 -84 -103 -103 -85 -190 -185 -231 -263 -38
-75 -74 -173 -86 -240 -4 -19 -9 -43 -11 -52 -11 -40 18 -14 45 40 29 56 129
176 115 137 -4 -11 -17 -47 -30 -81 -30 -82 -49 -179 -69 -359 -18 -158 -45
-284 -70 -322 -16 -24 -19 -43 -7 -43 4 0 29 27 56 60 28 33 53 60 56 60 4 0
8 -21 9 -47 5 -155 99 -370 225 -518 73 -85 117 -162 128 -225 6 -33 15 -57
20 -54 14 9 47 79 51 108 1 15 7 25 13 24 22 -7 137 -140 173 -202 42 -73 51
-71 51 12 l1 47 32 -37 c18 -20 43 -64 57 -97 14 -34 28 -61 32 -61 12 0 20
66 13 99 -4 17 -3 31 1 31 16 0 85 -86 90 -113 8 -33 20 -42 38 -27 17 13 36
-43 91 -260 39 -156 64 -227 174 -502 93 -232 131 -347 131 -397 0 -56 -31
-145 -97 -278 -72 -146 -76 -149 -150 -133 -156 35 -184 26 -251 -74 -63 -94
-89 -174 -73 -226 10 -34 16 -39 49 -43 20 -3 62 -14 92 -26 67 -25 140 -27
205 -4 42 14 61 14 139 5 130 -16 166 -7 224 57 l47 52 75 5 c116 8 137 13
170 41 38 32 71 96 100 193 12 41 58 144 102 228 l80 154 -37 31 c-58 48 -102
161 -134 349 -6 32 -20 181 -32 330 -14 183 -27 293 -40 333 -10 32 -17 61
-15 63 2 2 18 -4 35 -13 33 -17 37 -12 21 31 -10 25 -9 26 17 20 107 -25 195
-29 286 -12 51 10 121 26 157 37 164 50 576 129 598 115 5 -3 10 -33 11 -68 3
-81 53 -196 204 -466 122 -220 213 -404 246 -502 19 -54 21 -76 16 -133 -7
-63 -11 -73 -52 -120 -86 -99 -256 -247 -322 -281 -36 -19 -75 -18 -151 4 -64
18 -110 7 -157 -38 -54 -50 -114 -174 -116 -238 -2 -46 0 -49 33 -65 108 -52
242 -70 339 -45 37 9 103 16 163 16 118 0 138 10 192 95 38 59 47 67 235 199
209 147 381 328 381 400 0 17 -15 61 -34 96 -47 91 -60 174 -53 339 7 146 22
228 59 309 l23 50 55 -62 c73 -84 141 -133 209 -152 31 -9 123 -43 205 -76
208 -83 367 -119 563 -125 106 -4 166 -2 197 7 40 11 51 10 122 -15 89 -32
132 -51 221 -103 83 -48 86 -58 87 -302 l1 -195 -29 -57 c-16 -31 -39 -67 -51
-78 -20 -18 -27 -20 -66 -11 -63 15 -121 13 -146 -4 -12 -8 -28 -12 -36 -9
-23 9 -73 -22 -96 -59 -24 -40 -51 -137 -51 -187 0 -49 21 -74 88 -106 44 -21
74 -28 137 -30 44 -1 98 -7 120 -13 74 -19 269 -8 338 20 18 8 42 35 69 83 26
45 72 100 125 151 100 96 102 101 78 275 -12 89 -19 234 -24 505 -5 309 -9
384 -21 402 -18 28 -94 59 -190 77 -153 29 -436 136 -572 217 -54 32 -60 40
-119 154 -70 137 -155 275 -217 355 -82 103 -91 115 -156 191 -58 69 -106 144
-106 167 0 5 37 12 83 15 296 23 500 176 587 440 19 59 22 85 19 190 -4 121
-4 123 -48 210 -33 67 -58 100 -106 145 -118 108 -283 183 -515 233 -95 21
-130 23 -370 23 -233 0 -279 -3 -380 -23 -174 -34 -273 -43 -407 -39 -113 5
-127 7 -188 37 -36 18 -70 41 -76 53 -31 57 4 144 72 178 52 27 97 25 155 -6
121 -65 284 -90 384 -60 79 23 90 32 65 50 -18 13 -16 15 30 21 58 9 92 24
119 54 17 19 17 21 3 21 -24 0 -21 13 8 40 31 29 32 50 4 50 -19 0 -18 3 10
29 17 16 31 34 31 40 0 14 7 14 -70 -9 -72 -22 -191 -27 -237 -9 -26 10 -27
12 -10 23 9 7 17 15 17 17 0 2 -78 4 -173 4 -210 0 -255 -12 -326 -86 -25 -26
-76 -78 -112 -116 -123 -128 -144 -269 -52 -354 87 -81 163 -107 333 -115 110
-5 157 -2 390 31 303 43 422 43 649 5 292 -50 466 -147 546 -304 37 -73 37
-76 33 -164 -4 -78 -8 -97 -34 -138 -66 -107 -153 -145 -348 -152 -155 -5
-186 3 -257 63 -77 66 -267 191 -341 224 -114 51 -299 110 -473 150 -182 43
-376 109 -465 159 -150 84 -628 262 -810 302 -87 19 -85 17 -52 54 28 32 50
91 39 102 -3 3 -20 -4 -38 -15 -42 -26 -95 -27 -135 -2 -43 26 -62 87 -80 245
-7 72 -18 134 -24 140 -19 19 -10 22 64 21 69 0 109 11 78 23 -27 9 -81 64
-116 116 -20 30 -51 100 -69 157 -40 120 -80 210 -102 229 -24 20 -18 30 20
30 83 0 149 79 100 120 -13 10 -15 9 -15 -9 0 -50 -99 -4 -174 81 -26 29 -71
103 -101 163 -86 172 -149 246 -291 343 -13 8 -15 14 -7 18 51 23 86 75 76
113 -7 26 -19 27 -26 2 -6 -26 -64 -35 -115 -17 -22 8 -77 39 -121 70 -88 60
-129 72 -246 70 -61 -1 -127 -18 -196 -48 -12 -5 -20 1 -29 24 -20 48 -62 72
-133 75 -34 2 -73 1 -87 -2z m165 -43 c14 -13 25 -35 25 -49 0 -25 -118 -218
-143 -233 -6 -4 -8 -10 -5 -14 10 -9 64 48 121 129 41 59 57 73 115 100 63 30
73 32 182 32 127 0 116 4 249 -89 82 -57 147 -74 194 -51 40 20 44 19 21 -6
-29 -32 -69 -49 -116 -49 l-43 -1 80 -42 c44 -23 96 -54 116 -70 41 -31 153
-194 191 -277 55 -122 175 -262 235 -275 48 -11 49 -12 20 -24 -53 -21 -96
-13 -158 28 -71 48 -63 24 14 -42 66 -56 102 -123 152 -281 41 -128 70 -188
112 -230 14 -14 23 -29 20 -32 -3 -3 -29 2 -57 11 -36 12 -59 28 -83 58 -41
52 -118 127 -131 127 -6 0 6 -16 26 -35 19 -19 41 -50 49 -67 7 -18 30 -52 50
-76 49 -56 79 -148 89 -271 9 -109 35 -181 75 -207 33 -22 115 -30 144 -14 68
36 -1 -49 -73 -90 -45 -26 -61 -30 -131 -30 -44 0 -101 7 -128 15 -55 16 -137
70 -137 89 0 20 -34 59 -71 80 l-34 20 41 -46 c23 -24 47 -62 54 -82 18 -54
10 -175 -14 -211 l-19 -30 -20 60 c-38 115 -114 205 -172 205 -11 0 -31 7 -43
16 -30 21 -33 17 -22 -31 6 -22 14 -76 19 -120 5 -44 13 -89 17 -99 6 -17 3
-16 -25 5 -38 28 -81 106 -81 147 0 15 -7 37 -15 48 -13 18 -14 16 -15 -22 0
-22 -13 -80 -30 -129 -19 -57 -30 -109 -30 -144 0 -56 33 -192 64 -265 26 -62
17 -151 -25 -233 -16 -31 -19 -33 -24 -17 -18 57 -61 163 -77 190 -10 17 -51
61 -92 97 -82 74 -126 147 -126 209 0 21 -4 38 -10 38 -27 0 2 -136 41 -190
38 -52 44 -84 29 -154 l-11 -56 -23 28 c-12 15 -33 45 -47 67 l-24 40 -9 -65
c-5 -36 -9 -109 -10 -162 -1 -105 -5 -108 -45 -33 -12 22 -21 58 -22 80 -1 22
-4 51 -8 64 -6 23 -7 22 -23 -15 -75 -177 -100 -289 -85 -384 13 -86 4 -318
-15 -360 l-16 -35 -1 44 c-1 32 -16 76 -54 155 -30 61 -59 122 -65 136 -10 24
-11 24 -11 3 -1 -12 4 -34 11 -50 7 -17 12 -90 12 -193 l1 -165 81 -135 c103
-171 126 -217 121 -238 -3 -15 -5 -14 -12 3 -5 11 -32 48 -62 83 -29 35 -53
68 -53 73 0 5 -5 9 -11 9 -7 0 -9 -9 -5 -24 3 -13 3 -38 0 -56 l-7 -31 -25 43
c-14 24 -35 54 -47 68 -12 14 -28 35 -34 48 -21 40 -33 25 -26 -33 4 -30 5
-55 2 -55 -2 0 -16 17 -30 38 -13 20 -52 65 -85 99 -34 35 -80 98 -106 145
-47 86 -56 87 -31 4 16 -52 19 -128 6 -161 -7 -17 -10 -14 -21 20 -17 51 -49
103 -119 190 -122 151 -165 233 -206 389 -30 118 -32 198 -5 291 23 81 23 78
11 70 -6 -3 -30 -48 -54 -99 -53 -110 -69 -127 -52 -51 7 30 18 103 25 162 18
170 39 283 65 348 33 81 89 185 115 213 12 13 20 26 17 28 -11 11 -146 -89
-177 -131 -19 -25 -37 -45 -41 -45 -10 0 22 94 60 172 30 64 121 166 230 258
98 83 129 167 91 245 -13 26 -29 49 -36 52 -20 7 -17 23 4 23 37 0 64 -25 81
-74 9 -27 22 -52 29 -54 11 -3 12 0 4 14 -6 11 -13 37 -16 59 -15 102 -30 136
-84 195 -29 33 -51 64 -47 70 3 5 21 10 39 10 24 0 41 -10 71 -40 21 -22 46
-40 55 -39 10 0 11 2 2 6 -7 3 -35 35 -63 71 -46 61 -49 67 -30 70 31 5 114
-25 158 -57 21 -15 47 -47 57 -70 25 -53 32 -47 10 9 -20 49 -95 114 -154 131
-21 6 -43 21 -49 33 -6 11 -21 33 -33 48 -12 15 -19 30 -16 34 9 8 174 8 238
-1 94 -13 47 6 -61 24 -97 16 -100 18 -78 32 13 9 45 24 72 34 26 10 47 20 47
22 0 2 -22 1 -50 -3 -32 -4 -50 -3 -50 4 0 13 53 58 89 76 33 17 127 30 206
28 45 0 54 1 35 8 -33 11 -144 11 -197 1 -38 -7 -42 -6 -53 18 -10 22 -9 28
10 43 42 34 127 51 220 44 47 -3 96 -8 110 -11 21 -4 20 -3 -6 9 -43 21 -159
34 -208 25 -35 -7 -44 -5 -59 13 -17 21 -17 22 0 32 10 6 57 11 106 11 48 0
79 3 70 7 -10 3 -27 9 -38 13 -16 6 -8 11 37 25 31 10 83 36 114 57 116 78
133 83 206 63 60 -17 71 -35 65 -101 -6 -64 -37 -116 -75 -126 -36 -9 -100 14
-98 34 0 10 -4 18 -11 18 -15 0 -30 15 -15 15 6 0 16 10 23 21 11 21 10 22
-22 16 -19 -3 -45 -9 -59 -13 -19 -6 -11 6 37 54 83 85 54 78 -46 -10 -90 -81
-88 -93 12 -64 l52 15 -27 -24 c-37 -32 -35 -39 8 -32 29 5 34 4 24 -8 -9 -10
-5 -15 20 -20 17 -4 43 -13 57 -20 82 -43 182 107 139 209 -19 45 -63 66 -136
66 -55 0 -105 -21 -180 -76 -72 -52 -140 -74 -234 -76 -104 -2 -115 4 -72 42
24 22 44 30 70 30 20 0 54 8 74 18 51 26 164 91 180 104 7 6 36 15 64 19 71
11 83 27 16 22 -40 -4 -86 -21 -183 -71 -127 -64 -132 -65 -212 -66 -44 -1
-84 2 -88 5 -9 10 39 55 134 126 94 70 92 86 -3 21 -58 -40 -162 -88 -188 -88
-7 0 1 9 19 20 41 25 58 51 87 137 30 89 40 107 88 164 63 77 78 139 38 164
-22 14 13 26 63 22 32 -3 56 -12 72 -27z m-253 -68 c19 -12 40 -33 48 -46 12
-23 10 -29 -12 -58 -14 -18 -39 -73 -56 -121 -38 -104 -63 -141 -120 -174 -65
-39 -32 -58 51 -29 44 16 46 11 11 -25 l-26 -28 38 -10 c22 -5 50 -11 64 -13
24 -4 24 -5 -12 -27 -21 -13 -38 -27 -38 -31 0 -8 37 -22 85 -33 19 -5 19 -5
-2 -12 -28 -9 -28 -9 1 -48 l25 -33 -45 -23 c-48 -26 -52 -37 -29 -81 9 -17
12 -30 7 -30 -5 0 -30 -19 -56 -42 -33 -28 -46 -47 -43 -59 6 -23 -65 -79
-100 -79 -30 0 -29 -10 7 -68 17 -27 30 -51 30 -54 0 -2 -16 -2 -35 0 -42 5
-43 -1 -9 -41 l27 -32 -24 -6 c-13 -4 -36 -7 -51 -8 -16 -1 -28 -5 -28 -9 0
-4 24 -37 53 -73 60 -72 94 -126 85 -134 -3 -3 -16 -1 -29 4 -26 9 -101 -10
-107 -28 -2 -5 -18 -21 -37 -35 -28 -21 -51 -28 -130 -36 -53 -6 -114 -13
-135 -16 -34 -6 -39 -4 -42 15 -3 21 -4 21 -38 -8 -41 -35 -60 -39 -60 -11 0
25 -17 26 -24 3 -3 -10 -17 -31 -30 -48 l-23 -29 -21 39 c-54 108 -41 235 25
249 51 12 223 -29 223 -52 0 -14 40 -52 55 -52 21 0 55 36 55 58 0 10 -6 26
-13 36 -16 22 -136 55 -202 56 -72 1 -132 17 -170 46 -40 30 -88 91 -90 113
-1 9 -6 25 -12 36 -12 21 -10 136 2 155 4 6 14 9 23 5 8 -3 24 3 36 14 12 11
35 27 51 36 25 14 26 16 5 10 -35 -11 -143 -6 -155 6 -14 15 56 74 132 110 34
16 101 39 150 50 123 29 191 64 230 119 81 114 84 116 218 141 53 10 66 17
112 64 62 64 82 101 90 164 5 43 2 51 -26 83 -33 38 -86 64 -96 47 -4 -5 -24
-18 -45 -29 -42 -21 -144 -28 -155 -10 -3 6 3 10 14 10 38 0 90 33 122 77 17
25 41 49 53 54 38 16 160 5 198 -19z m3251 -1534 c-18 -20 -17 -21 65 -37 81
-17 155 -13 206 9 57 24 59 19 6 -16 -45 -30 -44 -46 3 -38 l32 5 -34 -30
c-19 -17 -47 -33 -62 -36 -54 -12 -46 -28 9 -21 30 4 52 3 52 -2 0 -12 -67
-29 -153 -37 -37 -4 -69 -11 -72 -15 -3 -4 14 -16 38 -26 l42 -17 -30 -8
c-101 -23 -275 4 -383 61 -67 35 -116 38 -171 10 -50 -25 -101 -90 -112 -142
-19 -83 36 -137 181 -174 85 -22 270 -14 465 20 231 40 352 50 534 42 178 -7
357 -36 466 -76 107 -40 273 -140 324 -196 62 -68 117 -175 130 -250 17 -105
-10 -248 -67 -359 -29 -58 -133 -167 -201 -213 -75 -50 -203 -83 -327 -85
l-88 -2 -43 62 c-47 67 -178 207 -170 183 3 -9 30 -51 62 -95 66 -93 125 -191
125 -208 -1 -7 -21 10 -45 38 -25 27 -45 44 -45 38 0 -17 82 -122 156 -200 81
-84 135 -147 190 -223 38 -52 61 -89 179 -285 27 -44 57 -93 67 -108 29 -42
13 -46 -28 -6 l-36 34 15 -30 c20 -39 99 -114 158 -148 107 -63 443 -189 581
-217 57 -12 122 -31 146 -42 l42 -20 1 -91 c1 -51 0 -171 -1 -267 -1 -164 17
-443 41 -625 l11 -80 -39 -30 c-69 -54 -127 -120 -159 -181 -42 -80 -68 -94
-201 -105 -125 -11 -215 -4 -243 19 -18 16 -18 22 -6 94 14 85 34 118 75 118
14 0 33 5 41 10 11 7 -2 10 -42 10 l-57 0 -28 -47 c-22 -38 -29 -64 -32 -121
-4 -80 -1 -78 -81 -61 -31 7 -54 18 -60 29 -21 40 66 278 107 294 8 3 44 1 81
-6 84 -14 117 -6 158 39 60 66 67 106 62 368 -3 184 -7 237 -18 251 -21 25
-214 117 -293 140 -59 17 -67 22 -62 39 3 11 8 34 10 50 5 27 4 28 -6 9 -6
-12 -38 -34 -71 -50 -58 -27 -68 -29 -182 -28 -195 2 -488 65 -651 140 -41 18
-97 40 -125 48 -28 9 -68 25 -88 38 -105 63 -295 290 -406 483 -72 124 -141
221 -166 235 -26 14 -28 -11 -3 -31 20 -17 133 -187 133 -201 0 -6 -18 -6 -47
-1 -27 4 -114 8 -196 8 -140 0 -147 1 -147 20 0 11 -7 33 -15 49 -8 15 -15 30
-15 31 0 7 88 -9 119 -21 30 -12 32 -12 21 1 -7 8 -45 25 -84 38 -62 19 -92
22 -241 21 -246 -1 -411 -26 -752 -115 -230 -60 -292 -64 -436 -30 -54 13
-101 21 -104 17 -4 -4 -1 -16 6 -28 12 -19 11 -20 -11 -13 -12 4 -48 13 -78
19 -49 11 -55 16 -58 40 -9 78 48 207 100 225 31 11 34 21 16 39 -9 9 -8 12 5
12 26 0 21 13 -23 66 -83 100 -164 262 -193 385 -6 27 -15 49 -19 49 -11 0
-10 -18 6 -77 38 -141 115 -292 188 -369 29 -31 29 -31 7 -37 -21 -6 -22 -7
-6 -24 15 -17 14 -19 -13 -31 -41 -19 -76 -85 -96 -182 -18 -92 -16 -162 12
-315 29 -165 33 -208 35 -369 0 -92 9 -214 19 -284 16 -109 23 -134 68 -224
l51 -102 -31 -35 c-37 -42 -126 -225 -158 -326 -31 -96 -61 -165 -72 -165 -5
0 -38 -30 -74 -67 -59 -60 -70 -67 -113 -71 -26 -2 -78 1 -117 7 -50 7 -86 7
-134 -1 -83 -15 -189 -15 -218 1 -31 16 -28 50 12 135 38 82 64 101 118 85 40
-11 38 -11 38 -1 0 13 -47 32 -80 32 -46 0 -113 -98 -135 -198 -5 -27 -11 -33
-28 -30 -19 3 -22 9 -20 42 3 41 47 146 84 197 11 16 34 36 50 45 28 14 39 13
132 -6 97 -19 102 -19 118 -3 55 56 177 325 187 409 6 53 -35 180 -158 489
-96 242 -135 352 -145 405 -12 66 -37 175 -55 236 -17 58 -90 214 -111 240 -5
6 -38 68 -74 138 l-65 127 0 94 c0 52 4 96 9 99 13 8 51 -123 51 -177 0 -26 4
-47 9 -47 18 0 60 105 71 173 6 38 9 157 8 265 -3 184 -2 201 20 265 22 62 42
87 42 52 0 -27 37 -88 88 -145 52 -57 74 -63 49 -13 -8 15 -17 47 -21 70 -8
51 4 213 15 213 11 0 59 -83 59 -103 0 -22 17 -22 24 1 3 9 12 56 22 105 9 48
20 87 24 87 4 0 25 -18 47 -39 51 -50 104 -173 111 -259 4 -59 6 -62 22 -47
10 9 32 47 50 86 46 100 50 173 17 281 -42 135 -51 213 -33 292 9 37 21 77 27
88 11 21 12 21 27 -8 21 -41 41 -63 84 -90 52 -33 59 -31 43 15 -10 30 -35
185 -35 222 0 7 51 -3 81 -15 47 -20 119 -166 119 -243 0 -39 2 -44 15 -33 30
25 79 143 79 193 0 26 1 47 2 47 1 0 21 -7 45 -16 69 -24 226 -30 284 -10 59
20 91 20 175 2 165 -35 315 -84 459 -152 62 -30 115 -54 116 -54 2 0 55 -25
119 -55 63 -30 118 -55 121 -55 3 0 25 -8 48 -19 165 -74 263 -104 437 -136
127 -23 281 -75 415 -140 109 -53 278 -160 342 -216 68 -59 108 -73 230 -77
141 -5 236 11 321 54 54 26 74 43 101 85 63 97 79 211 46 325 -42 144 -166
242 -400 317 -156 50 -239 60 -495 61 -221 1 -284 -5 -491 -44 -92 -18 -259
-23 -337 -11 -99 15 -191 61 -243 119 -41 46 -41 48 -36 110 5 72 47 150 101
192 18 14 53 50 77 80 76 95 147 118 351 116 119 -1 125 -2 111 -18z m-578
-2267 c52 -23 69 -45 68 -86 -1 -51 11 -56 112 -44 102 11 204 0 286 -31 69
-26 65 -22 129 -110 51 -69 55 -78 53 -125 -1 -29 -11 -87 -22 -131 -57 -227
-48 -440 25 -607 37 -86 41 -114 20 -155 -23 -44 -224 -232 -321 -300 -160
-113 -228 -170 -255 -214 -57 -90 -63 -93 -228 -96 -331 -6 -372 -2 -372 36 1
40 45 96 100 123 30 16 64 31 75 35 19 6 19 7 -4 15 -19 8 -36 4 -78 -16 -56
-28 -92 -67 -118 -128 -12 -29 -21 -37 -40 -37 -38 0 -40 24 -10 98 72 174
132 221 236 187 36 -12 71 -16 114 -13 55 5 68 11 126 54 97 75 268 243 291
288 31 62 35 148 8 226 -27 81 -127 291 -205 430 -173 308 -215 401 -235 509
-18 103 -14 107 130 109 53 1 87 -4 115 -17z m-1500 -137 c45 -18 90 -208 115
-489 16 -184 29 -269 61 -400 35 -143 59 -195 106 -234 l36 -29 -40 -60 c-53
-80 -116 -209 -151 -312 -15 -47 -40 -104 -55 -126 -25 -41 -27 -42 -97 -49
-39 -4 -73 -5 -76 -2 -2 2 4 25 15 51 11 25 39 101 62 169 47 137 96 242 134
283 14 15 24 30 22 33 -31 55 -91 197 -102 240 -18 73 -35 281 -35 430 0 65
-7 156 -15 202 -27 159 -44 282 -39 291 6 10 36 11 59 2z m3555 -1517 c0 -2
-16 -34 -35 -73 -19 -38 -40 -95 -47 -126 -13 -60 -18 -67 -37 -44 -14 17 42
215 66 234 15 10 53 17 53 9z"/>
<path d="M2765 5391 c5 -23 0 -36 -24 -64 -39 -43 -39 -52 -2 -32 36 18 58 74
41 105 -15 29 -23 25 -15 -9z"/>
<path d="M1794 5362 c-22 -15 -54 -71 -53 -94 1 -20 3 -18 16 12 8 19 24 45
36 57 20 23 21 39 1 25z"/>
<path d="M1766 5251 c-14 -22 -35 -46 -47 -55 -27 -19 -19 -32 9 -17 12 6 35
11 53 11 17 0 56 14 87 32 l55 31 -44 18 c-68 28 -85 24 -113 -20z m91 4 c3
-9 -2 -22 -13 -30 -23 -17 -74 -20 -74 -4 0 6 6 9 14 6 17 -7 42 18 27 27 -5
3 -11 0 -14 -6 -2 -7 -8 -10 -12 -6 -13 13 6 28 36 28 18 0 32 -6 36 -15z"/>
<path d="M1420 4990 c0 -5 4 -10 9 -10 6 0 13 5 16 10 3 6 -1 10 -9 10 -9 0
-16 -4 -16 -10z"/>
<path d="M1500 4990 c0 -5 4 -10 9 -10 6 0 13 5 16 10 3 6 -1 10 -9 10 -9 0
-16 -4 -16 -10z"/>
<path d="M1360 4980 c-13 -8 -12 -10 3 -10 9 0 17 5 17 10 0 12 -1 12 -20 0z"/>
<path d="M1300 4970 c0 -5 7 -10 16 -10 8 0 12 5 9 10 -3 6 -10 10 -16 10 -5
0 -9 -4 -9 -10z"/>
<path d="M1490 4910 c0 -5 7 -10 15 -10 8 0 15 5 15 10 0 6 -7 10 -15 10 -8 0
-15 -4 -15 -10z"/>
<path d="M1285 4900 c-3 -5 3 -10 15 -10 12 0 18 5 15 10 -3 6 -10 10 -15 10
-5 0 -12 -4 -15 -10z"/>
<path d="M1350 4900 c0 -5 4 -10 9 -10 6 0 13 5 16 10 3 6 -1 10 -9 10 -9 0
-16 -4 -16 -10z"/>
<path d="M1560 4890 c0 -5 5 -10 11 -10 5 0 7 5 4 10 -3 6 -8 10 -11 10 -2 0
-4 -4 -4 -10z"/>
<path d="M1290 4820 c0 -5 7 -10 16 -10 8 0 12 5 9 10 -3 6 -10 10 -16 10 -5
0 -9 -4 -9 -10z"/>
<path d="M1410 4810 c0 -5 5 -10 10 -10 6 0 10 5 10 10 0 6 -4 10 -10 10 -5 0
-10 -4 -10 -10z"/>
<path d="M1470 4800 c0 -5 5 -10 10 -10 6 0 10 5 10 10 0 6 -4 10 -10 10 -5 0
-10 -4 -10 -10z"/>
<path d="M1530 4780 c0 -5 5 -10 11 -10 5 0 7 5 4 10 -3 6 -8 10 -11 10 -2 0
-4 -4 -4 -10z"/>
<path d="M1345 4740 c-3 -5 1 -10 10 -10 9 0 13 5 10 10 -3 6 -8 10 -10 10 -2
0 -7 -4 -10 -10z"/>
</g>
</svg>
